<?xml version="1.0" standalone="no"?>
<!DOCTYPE svg PUBLIC "-//W3C//DTD SVG 20010904//EN"
 "http://www.w3.org/TR/2001/REC-SVG-20010904/DTD/svg10.dtd">
<svg version="1.0" xmlns="http://www.w3.org/2000/svg"
 width="480.000000pt" height="480.000000pt" viewBox="0 0 480.000000 480.000000"
 preserveAspectRatio="xMidYMid meet">
<metadata>
Created by potrace 1.14, written by Peter Selinger 2001-2017
</metadata>
<g transform="translate(0.000000,480.000000) scale(0.100000,-0.100000)"
fill="#000000" stroke="none">
<path d="M2250 3553 c-243 -23 -457 -85 -603 -173 l-66 -40 -77 55 c-94 68
-190 101 -265 91 -198 -26 -302 -121 -329 -302 -31 -202 63 -370 240 -429 l47
-16 6 -232 c6 -247 21 -347 71 -493 l24 -71 -63 -42 c-154 -101 -265 -217
-335 -351 -67 -131 -71 -158 -68 -587 l3 -377 60 -49 c87 -70 197 -147 297
-205 l88 -52 0 439 c0 411 1 443 20 504 33 108 107 203 223 291 l49 36 36 -32
c105 -92 341 -213 452 -232 l35 -6 -37 14 c-287 111 -465 341 -445 577 21 248
226 454 535 536 141 38 363 38 504 0 154 -41 270 -105 371 -204 117 -116 161
-216 161 -368 0 -80 -5 -111 -23 -157 -65 -166 -210 -298 -414 -379 -96 -37
-62 -37 54 1 111 37 252 109 333 171 106 81 95 79 164 25 66 -50 142 -137 172
-195 48 -95 50 -118 50 -583 l0 -438 88 52 c100 58 210 135 297 205 l60 49 3
377 c3 421 -1 454 -62 574 -66 133 -152 228 -306 341 -41 30 -79 58 -83 62 -5
4 5 50 21 102 45 140 62 275 62 501 l0 195 33 7 c50 11 105 42 154 88 81 75
120 186 110 316 -15 195 -115 305 -305 333 -63 9 -78 8 -139 -12 -75 -24 -117
-47 -180 -97 l-43 -34 -57 35 c-190 117 -485 188 -766 184 -67 0 -138 -3 -157
-5z m-225 -642 c52 -23 102 -81 111 -126 24 -127 -62 -235 -186 -235 -83 0
-144 40 -175 113 -41 99 0 202 100 248 51 23 99 24 150 0z m900 0 c52 -23 102
-81 111 -126 24 -127 -62 -235 -186 -235 -83 0 -144 40 -175 113 -41 99 0 202
100 248 51 23 99 24 150 0z"/>
<path d="M1902 2794 c-33 -23 -31 -86 4 -113 15 -12 34 -21 44 -21 34 0 70 39
70 76 0 63 -65 95 -118 58z"/>
<path d="M2802 2794 c-33 -23 -31 -86 4 -113 15 -12 34 -21 44 -21 34 0 70 39
70 76 0 63 -65 95 -118 58z"/>
<path d="M2279 2276 c-72 -20 -150 -67 -180 -110 -54 -74 -51 -149 11 -218
129 -148 451 -148 580 0 108 123 28 274 -174 328 -63 17 -175 17 -237 0z"/>
<path d="M2648 1263 c7 -3 16 -2 19 1 4 3 -2 6 -13 5 -11 0 -14 -3 -6 -6z"/>
<path d="M2598 1253 c7 -3 16 -2 19 1 4 3 -2 6 -13 5 -11 0 -14 -3 -6 -6z"/>
</g>
</svg>
