<svg viewBox="0 0 920 460" xmlns="http://www.w3.org/2000/svg" font-family="-apple-system,BlinkMacSystemFont,'Helvetica Neue','Apple SD Gothic Neo',sans-serif">
<rect x="0" y="0" width="920" height="460" fill="#ffffff"/>
<line x1="58" y1="396.0" x2="896" y2="396.0" stroke="#e7e7e7" stroke-width="1"/>
<text x="50" y="400.0" font-size="11" fill="#8a8a8a" text-anchor="end">0</text>
<line x1="58" y1="308.5" x2="896" y2="308.5" stroke="#e7e7e7" stroke-width="1"/>
<text x="50" y="312.5" font-size="11" fill="#8a8a8a" text-anchor="end">25</text>
<line x1="58" y1="221.0" x2="896" y2="221.0" stroke="#e7e7e7" stroke-width="1"/>
<text x="50" y="225.0" font-size="11" fill="#8a8a8a" text-anchor="end">50</text>
<line x1="58" y1="133.5" x2="896" y2="133.5" stroke="#e7e7e7" stroke-width="1"/>
<text x="50" y="137.5" font-size="11" fill="#8a8a8a" text-anchor="end">75</text>
<line x1="58" y1="46.0" x2="896" y2="46.0" stroke="#e7e7e7" stroke-width="1"/>
<text x="50" y="50.0" font-size="11" fill="#8a8a8a" text-anchor="end">100</text>
<text x="58.0" y="414" font-size="11" fill="#8a8a8a" text-anchor="middle">2004</text>
<text x="132.8" y="414" font-size="11" fill="#8a8a8a" text-anchor="middle">2006</text>
<text x="207.5" y="414" font-size="11" fill="#8a8a8a" text-anchor="middle">2008</text>
<text x="282.3" y="414" font-size="11" fill="#8a8a8a" text-anchor="middle">2010</text>
<text x="357.1" y="414" font-size="11" fill="#8a8a8a" text-anchor="middle">2012</text>
<text x="431.8" y="414" font-size="11" fill="#8a8a8a" text-anchor="middle">2014</text>
<text x="506.6" y="414" font-size="11" fill="#8a8a8a" text-anchor="middle">2016</text>
<text x="581.4" y="414" font-size="11" fill="#8a8a8a" text-anchor="middle">2018</text>
<text x="656.1" y="414" font-size="11" fill="#8a8a8a" text-anchor="middle">2020</text>
<text x="730.9" y="414" font-size="11" fill="#8a8a8a" text-anchor="middle">2022</text>
<text x="805.7" y="414" font-size="11" fill="#8a8a8a" text-anchor="middle">2024</text>
<text x="880.4" y="414" font-size="11" fill="#8a8a8a" text-anchor="middle">2026</text>
<line x1="547.1" y1="46" x2="547.1" y2="396" stroke="#8a8a8a" stroke-width="1" stroke-dasharray="3 3" opacity="0.55"/>
<text x="547.1" y="38" font-size="10.5" fill="#8a8a8a" text-anchor="middle">2017.2 아이슬란드 대통령</text>
<line x1="674.8" y1="46" x2="674.8" y2="396" stroke="#8a8a8a" stroke-width="1" stroke-dasharray="3 3" opacity="0.55"/>
<text x="674.8" y="52" font-size="10.5" fill="#8a8a8a" text-anchor="middle">2020 유튜브·민초 붐</text>
<line x1="777.6" y1="46" x2="777.6" y2="396" stroke="#cf5b46" stroke-width="1" stroke-dasharray="3 3" opacity="0.55"/>
<text x="777.6" y="38" font-size="10.5" fill="#cf5b46" text-anchor="middle">2023.4 〈Pineapple on Pizza〉 게임</text>
<path d="M 58.0 396.0 L 61.1 396.0 L 64.2 396.0 L 67.3 396.0 L 70.5 396.0 L 73.6 396.0 L 76.7 396.0 L 79.8 396.0 L 82.9 396.0 L 86.0 396.0 L 89.2 396.0 L 92.3 396.0 L 95.4 396.0 L 98.5 396.0 L 101.6 396.0 L 104.7 396.0 L 107.8 396.0 L 111.0 396.0 L 114.1 396.0 L 117.2 396.0 L 120.3 396.0 L 123.4 396.0 L 126.5 396.0 L 129.7 396.0 L 132.8 396.0 L 135.9 396.0 L 139.0 396.0 L 142.1 396.0 L 145.2 396.0 L 148.3 396.0 L 151.5 396.0 L 154.6 396.0 L 157.7 396.0 L 160.8 396.0 L 163.9 396.0 L 167.0 396.0 L 170.1 396.0 L 173.3 396.0 L 176.4 396.0 L 179.5 396.0 L 182.6 396.0 L 185.7 396.0 L 188.8 396.0 L 192.0 396.0 L 195.1 396.0 L 198.2 396.0 L 201.3 396.0 L 204.4 396.0 L 207.5 396.0 L 210.6 396.0 L 213.8 396.0 L 216.9 396.0 L 220.0 396.0 L 223.1 396.0 L 226.2 396.0 L 229.3 396.0 L 232.5 396.0 L 235.6 396.0 L 238.7 396.0 L 241.8 396.0 L 244.9 396.0 L 248.0 396.0 L 251.1 396.0 L 254.3 396.0 L 257.4 396.0 L 260.5 396.0 L 263.6 396.0 L 266.7 396.0 L 269.8 396.0 L 273.0 396.0 L 276.1 396.0 L 279.2 396.0 L 282.3 396.0 L 285.4 396.0 L 288.5 396.0 L 291.6 396.0 L 294.8 396.0 L 297.9 396.0 L 301.0 396.0 L 304.1 396.0 L 307.2 396.0 L 310.3 396.0 L 313.4 396.0 L 316.6 396.0 L 319.7 396.0 L 322.8 396.0 L 325.9 396.0 L 329.0 396.0 L 332.1 396.0 L 335.3 396.0 L 338.4 396.0 L 341.5 396.0 L 344.6 396.0 L 347.7 396.0 L 350.8 396.0 L 353.9 396.0 L 357.1 396.0 L 360.2 396.0 L 363.3 396.0 L 366.4 396.0 L 369.5 396.0 L 372.6 396.0 L 375.8 396.0 L 378.9 396.0 L 382.0 396.0 L 385.1 396.0 L 388.2 396.0 L 391.3 396.0 L 394.4 396.0 L 397.6 396.0 L 400.7 396.0 L 403.8 396.0 L 406.9 396.0 L 410.0 396.0 L 413.1 396.0 L 416.3 396.0 L 419.4 396.0 L 422.5 396.0 L 425.6 396.0 L 428.7 396.0 L 431.8 396.0 L 434.9 396.0 L 438.1 396.0 L 441.2 396.0 L 444.3 396.0 L 447.4 396.0 L 450.5 396.0 L 453.6 396.0 L 456.8 396.0 L 459.9 396.0 L 463.0 396.0 L 466.1 396.0 L 469.2 396.0 L 472.3 396.0 L 475.4 396.0 L 478.6 396.0 L 481.7 396.0 L 484.8 396.0 L 487.9 396.0 L 491.0 396.0 L 494.1 396.0 L 497.2 396.0 L 500.4 396.0 L 503.5 396.0 L 506.6 396.0 L 509.7 396.0 L 512.8 396.0 L 515.9 396.0 L 519.1 396.0 L 522.2 396.0 L 525.3 396.0 L 528.4 396.0 L 531.5 396.0 L 534.6 396.0 L 537.7 396.0 L 540.9 396.0 L 544.0 396.0 L 547.1 396.0 L 550.2 396.0 L 553.3 298.0 L 556.4 396.0 L 559.6 396.0 L 562.7 396.0 L 565.8 396.0 L 568.9 396.0 L 572.0 396.0 L 575.1 238.5 L 578.2 280.5 L 581.4 221.0 L 584.5 396.0 L 587.6 207.0 L 590.7 245.5 L 593.8 298.0 L 596.9 249.0 L 600.1 263.0 L 603.2 301.5 L 606.3 259.5 L 609.4 280.5 L 612.5 270.0 L 615.6 291.0 L 618.7 280.5 L 621.9 266.5 L 625.0 280.5 L 628.1 287.5 L 631.2 242.0 L 634.3 273.5 L 637.4 315.5 L 640.6 270.0 L 643.7 396.0 L 646.8 273.5 L 649.9 298.0 L 653.0 396.0 L 656.1 322.5 L 659.2 263.0 L 662.4 249.0 L 665.5 252.5 L 668.6 259.5 L 671.7 277.0 L 674.8 228.0 L 677.9 228.0 L 681.0 245.5 L 684.2 266.5 L 687.3 294.5 L 690.4 231.5 L 693.5 291.0 L 696.6 263.0 L 699.7 259.5 L 702.9 235.0 L 706.0 256.0 L 709.1 284.0 L 712.2 280.5 L 715.3 280.5 L 718.4 273.5 L 721.5 287.5 L 724.7 256.0 L 727.8 249.0 L 730.9 231.5 L 734.0 277.0 L 737.1 256.0 L 740.2 200.0 L 743.4 266.5 L 746.5 263.0 L 749.6 249.0 L 752.7 252.5 L 755.8 259.5 L 758.9 263.0 L 762.0 315.5 L 765.2 273.5 L 768.3 315.5 L 771.4 266.5 L 774.5 256.0 L 777.6 46.0 L 780.7 123.0 L 783.9 186.0 L 787.0 242.0 L 790.1 266.5 L 793.2 189.5 L 796.3 238.5 L 799.4 221.0 L 802.5 280.5 L 805.7 256.0 L 808.8 249.0 L 811.9 273.5 L 815.0 242.0 L 818.1 280.5 L 821.2 249.0 L 824.3 252.5 L 827.5 231.5 L 830.6 263.0 L 833.7 238.5 L 836.8 242.0 L 839.9 228.0 L 843.0 242.0 L 846.2 277.0 L 849.3 273.5 L 852.4 266.5 L 855.5 291.0 L 858.6 280.5 L 861.7 238.5 L 864.8 277.0 L 868.0 242.0 L 871.1 231.5 L 874.2 259.5 L 877.3 252.5 L 880.4 280.5 L 883.5 312.0 L 886.7 329.5 L 889.8 298.0 L 892.9 291.0 L 896.0 322.5" fill="none" stroke="#cf5b46" stroke-width="1.7" opacity="0.95"/>
<path d="M 58.0 396.0 L 61.1 396.0 L 64.2 396.0 L 67.3 396.0 L 70.5 396.0 L 73.6 396.0 L 76.7 396.0 L 79.8 396.0 L 82.9 396.0 L 86.0 396.0 L 89.2 396.0 L 92.3 396.0 L 95.4 396.0 L 98.5 396.0 L 101.6 396.0 L 104.7 396.0 L 107.8 396.0 L 111.0 396.0 L 114.1 396.0 L 117.2 396.0 L 120.3 396.0 L 123.4 396.0 L 126.5 396.0 L 129.7 396.0 L 132.8 396.0 L 135.9 396.0 L 139.0 396.0 L 142.1 396.0 L 145.2 396.0 L 148.3 396.0 L 151.5 396.0 L 154.6 396.0 L 157.7 396.0 L 160.8 396.0 L 163.9 396.0 L 167.0 396.0 L 170.1 396.0 L 173.3 396.0 L 176.4 396.0 L 179.5 396.0 L 182.6 396.0 L 185.7 396.0 L 188.8 396.0 L 192.0 396.0 L 195.1 396.0 L 198.2 396.0 L 201.3 396.0 L 204.4 396.0 L 207.5 396.0 L 210.6 396.0 L 213.8 396.0 L 216.9 396.0 L 220.0 396.0 L 223.1 396.0 L 226.2 396.0 L 229.3 396.0 L 232.5 396.0 L 235.6 396.0 L 238.7 396.0 L 241.8 396.0 L 244.9 396.0 L 248.0 396.0 L 251.1 396.0 L 254.3 396.0 L 257.4 396.0 L 260.5 396.0 L 263.6 396.0 L 266.7 396.0 L 269.8 396.0 L 273.0 396.0 L 276.1 396.0 L 279.2 396.0 L 282.3 396.0 L 285.4 396.0 L 288.5 396.0 L 291.6 396.0 L 294.8 396.0 L 297.9 396.0 L 301.0 396.0 L 304.1 396.0 L 307.2 396.0 L 310.3 396.0 L 313.4 396.0 L 316.6 396.0 L 319.7 396.0 L 322.8 396.0 L 325.9 396.0 L 329.0 396.0 L 332.1 396.0 L 335.3 396.0 L 338.4 396.0 L 341.5 396.0 L 344.6 396.0 L 347.7 396.0 L 350.8 396.0 L 353.9 396.0 L 357.1 396.0 L 360.2 396.0 L 363.3 396.0 L 366.4 396.0 L 369.5 396.0 L 372.6 396.0 L 375.8 396.0 L 378.9 396.0 L 382.0 396.0 L 385.1 396.0 L 388.2 396.0 L 391.3 396.0 L 394.4 396.0 L 397.6 396.0 L 400.7 396.0 L 403.8 396.0 L 406.9 266.5 L 410.0 396.0 L 413.1 396.0 L 416.3 396.0 L 419.4 396.0 L 422.5 396.0 L 425.6 396.0 L 428.7 396.0 L 431.8 396.0 L 434.9 396.0 L 438.1 396.0 L 441.2 396.0 L 444.3 396.0 L 447.4 396.0 L 450.5 396.0 L 453.6 396.0 L 456.8 396.0 L 459.9 396.0 L 463.0 396.0 L 466.1 396.0 L 469.2 396.0 L 472.3 396.0 L 475.4 396.0 L 478.6 396.0 L 481.7 396.0 L 484.8 396.0 L 487.9 396.0 L 491.0 396.0 L 494.1 396.0 L 497.2 396.0 L 500.4 396.0 L 503.5 396.0 L 506.6 396.0 L 509.7 396.0 L 512.8 396.0 L 515.9 396.0 L 519.1 396.0 L 522.2 396.0 L 525.3 396.0 L 528.4 396.0 L 531.5 396.0 L 534.6 396.0 L 537.7 396.0 L 540.9 396.0 L 544.0 396.0 L 547.1 396.0 L 550.2 284.0 L 553.3 305.0 L 556.4 396.0 L 559.6 396.0 L 562.7 396.0 L 565.8 291.0 L 568.9 284.0 L 572.0 396.0 L 575.1 315.5 L 578.2 305.0 L 581.4 319.0 L 584.5 235.0 L 587.6 266.5 L 590.7 287.5 L 593.8 396.0 L 596.9 224.5 L 600.1 298.0 L 603.2 266.5 L 606.3 249.0 L 609.4 280.5 L 612.5 277.0 L 615.6 301.5 L 618.7 298.0 L 621.9 301.5 L 625.0 315.5 L 628.1 396.0 L 631.2 277.0 L 634.3 280.5 L 637.4 249.0 L 640.6 312.0 L 643.7 396.0 L 646.8 291.0 L 649.9 305.0 L 653.0 294.5 L 656.1 315.5 L 659.2 252.5 L 662.4 284.0 L 665.5 259.5 L 668.6 322.5 L 671.7 256.0 L 674.8 186.0 L 677.9 263.0 L 681.0 263.0 L 684.2 238.5 L 687.3 252.5 L 690.4 273.5 L 693.5 224.5 L 696.6 245.5 L 699.7 277.0 L 702.9 259.5 L 706.0 273.5 L 709.1 266.5 L 712.2 249.0 L 715.3 287.5 L 718.4 235.0 L 721.5 305.0 L 724.7 221.0 L 727.8 256.0 L 730.9 200.0 L 734.0 221.0 L 737.1 270.0 L 740.2 259.5 L 743.4 291.0 L 746.5 231.5 L 749.6 245.5 L 752.7 280.5 L 755.8 273.5 L 758.9 200.0 L 762.0 277.0 L 765.2 284.0 L 768.3 301.5 L 771.4 228.0 L 774.5 294.5 L 777.6 231.5 L 780.7 273.5 L 783.9 308.5 L 787.0 280.5 L 790.1 280.5 L 793.2 270.0 L 796.3 259.5 L 799.4 301.5 L 802.5 294.5 L 805.7 280.5 L 808.8 298.0 L 811.9 298.0 L 815.0 273.5 L 818.1 270.0 L 821.2 308.5 L 824.3 294.5 L 827.5 263.0 L 830.6 333.0 L 833.7 242.0 L 836.8 242.0 L 839.9 203.5 L 843.0 277.0 L 846.2 298.0 L 849.3 266.5 L 852.4 259.5 L 855.5 294.5 L 858.6 287.5 L 861.7 287.5 L 864.8 263.0 L 868.0 280.5 L 871.1 301.5 L 874.2 298.0 L 877.3 266.5 L 880.4 263.0 L 883.5 277.0 L 886.7 322.5 L 889.8 277.0 L 892.9 291.0 L 896.0 322.5" fill="none" stroke="#3f6fb0" stroke-width="1.7" opacity="0.95"/>
<circle cx="777.6" cy="46.0" r="3.2" fill="#cf5b46"/>
<text x="58" y="22" font-size="14.5" fill="#2b2b2b" font-weight="600">한국 구글 검색 관심도 (2004–2026, 월별·상대지수)</text>
<rect x="82" y="326" width="18" height="3" fill="#3f6fb0"/>
<text x="106" y="331" font-size="12" fill="#2b2b2b">하와이안 피자</text>
<rect x="82" y="346" width="18" height="3" fill="#cf5b46"/>
<text x="106" y="351" font-size="12" fill="#2b2b2b">파인애플 피자</text>
<text x="58" y="452" font-size="10" fill="#8a8a8a">출처: Google 트렌드 (대한민국, 웹 검색). 0~100은 절대량이 아닌 기간 내 최고점 대비 상대지수.</text>
</svg>