<svg viewBox="0 0 920 460" xmlns="http://www.w3.org/2000/svg" font-family="-apple-system,BlinkMacSystemFont,'Helvetica Neue','Apple SD Gothic Neo',sans-serif">
<rect x="0" y="0" width="920" height="460" fill="#ffffff"/>
<line x1="58" y1="396.0" x2="896" y2="396.0" stroke="#e7e7e7"/>
<text x="50" y="400.0" font-size="11" fill="#8a8a8a" text-anchor="end">0</text>
<line x1="58" y1="308.5" x2="896" y2="308.5" stroke="#e7e7e7"/>
<text x="50" y="312.5" font-size="11" fill="#8a8a8a" text-anchor="end">25</text>
<line x1="58" y1="221.0" x2="896" y2="221.0" stroke="#e7e7e7"/>
<text x="50" y="225.0" font-size="11" fill="#8a8a8a" text-anchor="end">50</text>
<line x1="58" y1="133.5" x2="896" y2="133.5" stroke="#e7e7e7"/>
<text x="50" y="137.5" font-size="11" fill="#8a8a8a" text-anchor="end">75</text>
<line x1="58" y1="46.0" x2="896" y2="46.0" stroke="#e7e7e7"/>
<text x="50" y="50.0" font-size="11" fill="#8a8a8a" text-anchor="end">100</text>
<text x="58.0" y="414" font-size="11" fill="#8a8a8a" text-anchor="middle">2016</text>
<text x="220.2" y="414" font-size="11" fill="#8a8a8a" text-anchor="middle">2018</text>
<text x="382.4" y="414" font-size="11" fill="#8a8a8a" text-anchor="middle">2020</text>
<text x="544.6" y="414" font-size="11" fill="#8a8a8a" text-anchor="middle">2022</text>
<text x="706.8" y="414" font-size="11" fill="#8a8a8a" text-anchor="middle">2024</text>
<text x="869.0" y="414" font-size="11" fill="#8a8a8a" text-anchor="middle">2026</text>
<line x1="145.9" y1="46" x2="145.9" y2="396" stroke="#8a8a8a" stroke-dasharray="3 3" opacity="0.55"/>
<text x="145.9" y="38" font-size="10.5" fill="#8a8a8a" text-anchor="middle">2017.2 아이슬란드 대통령</text>
<line x1="274.3" y1="46" x2="274.3" y2="396" stroke="#3f6fb0" stroke-dasharray="3 3" opacity="0.55"/>
<text x="274.3" y="38" font-size="10.5" fill="#3f6fb0" text-anchor="middle">2018.9 원인 불명 단일 이상치(최고점=100, 네이버만)</text>
<path d="M 58.0 391.2 L 64.8 391.9 L 71.5 391.2 L 78.3 390.2 L 85.0 391.3 L 91.8 392.1 L 98.5 391.6 L 105.3 390.7 L 112.1 392.0 L 118.8 391.1 L 125.6 391.6 L 132.3 391.1 L 139.1 390.3 L 145.9 386.6 L 152.6 386.2 L 159.4 383.3 L 166.1 386.9 L 172.9 387.3 L 179.6 389.4 L 186.4 388.6 L 193.2 387.8 L 199.9 387.7 L 206.7 385.1 L 213.4 386.6 L 220.2 382.0 L 227.0 384.3 L 233.7 376.4 L 240.5 381.7 L 247.2 379.3 L 254.0 382.8 L 260.7 385.1 L 267.5 383.0 L 274.3 385.6 L 281.0 384.5 L 287.8 378.2 L 294.5 382.2 L 301.3 384.2 L 308.0 385.1 L 314.8 385.6 L 321.6 383.1 L 328.3 386.0 L 335.1 386.0 L 341.8 386.5 L 348.6 385.4 L 355.4 386.0 L 362.1 385.3 L 368.9 386.5 L 375.6 384.5 L 382.4 385.4 L 389.1 385.0 L 395.9 377.9 L 402.7 379.5 L 409.4 380.6 L 416.2 383.7 L 422.9 368.9 L 429.7 376.3 L 436.5 374.7 L 443.2 377.9 L 450.0 363.1 L 456.7 369.3 L 463.5 374.2 L 470.2 378.8 L 477.0 372.6 L 483.8 376.3 L 490.5 374.2 L 497.3 381.0 L 504.0 377.4 L 510.8 376.8 L 517.5 380.7 L 524.3 381.4 L 531.1 382.2 L 537.8 379.1 L 544.6 380.5 L 551.3 380.2 L 558.1 379.7 L 564.9 380.2 L 571.6 381.8 L 578.4 382.3 L 585.1 382.3 L 591.9 381.5 L 598.6 383.8 L 605.4 383.0 L 612.2 381.6 L 618.9 382.7 L 625.7 383.0 L 632.4 382.2 L 639.2 383.8 L 646.0 382.6 L 652.7 382.4 L 659.5 382.1 L 666.2 381.0 L 673.0 380.1 L 679.7 382.0 L 686.5 382.2 L 693.3 383.4 L 700.0 383.9 L 706.8 381.3 L 713.5 383.8 L 720.3 382.4 L 727.0 383.1 L 733.8 383.2 L 740.6 383.7 L 747.3 385.0 L 754.1 384.7 L 760.8 385.8 L 767.6 385.4 L 774.4 385.5 L 781.1 386.1 L 787.9 386.4 L 794.6 386.9 L 801.4 386.5 L 808.1 386.0 L 814.9 386.5 L 821.7 387.0 L 828.4 387.2 L 835.2 388.2 L 841.9 389.2 L 848.7 389.1 L 855.5 389.0 L 862.2 389.4 L 869.0 388.2 L 875.7 389.3 L 882.5 389.7 L 889.2 390.4 L 896.0 390.3" fill="none" stroke="#cf5b46" stroke-width="1.7"/>
<path d="M 58.0 376.7 L 64.8 375.9 L 71.5 376.7 L 78.3 374.9 L 85.0 370.8 L 91.8 373.4 L 98.5 372.6 L 105.3 370.6 L 112.1 374.4 L 118.8 373.0 L 125.6 371.0 L 132.3 371.3 L 139.1 370.8 L 145.9 368.3 L 152.6 367.6 L 159.4 369.7 L 166.1 370.8 L 172.9 367.5 L 179.6 368.4 L 186.4 368.7 L 193.2 370.6 L 199.9 370.9 L 206.7 370.1 L 213.4 365.8 L 220.2 364.3 L 227.0 366.8 L 233.7 360.8 L 240.5 363.7 L 247.2 340.7 L 254.0 356.2 L 260.7 361.6 L 267.5 356.7 L 274.3 46.0 L 281.0 358.6 L 287.8 360.9 L 294.5 347.9 L 301.3 352.2 L 308.0 363.0 L 314.8 361.6 L 321.6 358.7 L 328.3 361.5 L 335.1 360.7 L 341.8 358.9 L 348.6 355.2 L 355.4 359.0 L 362.1 361.9 L 368.9 363.3 L 375.6 344.5 L 382.4 355.0 L 389.1 353.2 L 395.9 343.6 L 402.7 345.5 L 409.4 344.4 L 416.2 347.4 L 422.9 341.0 L 429.7 331.7 L 436.5 329.6 L 443.2 332.4 L 450.0 332.9 L 456.7 320.1 L 463.5 316.8 L 470.2 345.0 L 477.0 336.5 L 483.8 334.1 L 490.5 334.1 L 497.3 344.9 L 504.0 338.9 L 510.8 338.8 L 517.5 348.2 L 524.3 349.7 L 531.1 338.0 L 537.8 347.6 L 544.6 349.4 L 551.3 349.3 L 558.1 345.3 L 564.9 352.8 L 571.6 351.9 L 578.4 354.9 L 585.1 352.0 L 591.9 350.9 L 598.6 353.6 L 605.4 354.1 L 612.2 357.1 L 618.9 356.2 L 625.7 356.6 L 632.4 358.7 L 639.2 360.7 L 646.0 359.5 L 652.7 351.2 L 659.5 358.2 L 666.2 354.9 L 673.0 346.1 L 679.7 355.2 L 686.5 353.3 L 693.3 357.4 L 700.0 356.9 L 706.8 350.6 L 713.5 356.2 L 720.3 356.3 L 727.0 352.9 L 733.8 352.2 L 740.6 356.4 L 747.3 357.9 L 754.1 356.4 L 760.8 364.6 L 767.6 344.6 L 774.4 354.1 L 781.1 356.1 L 787.9 358.8 L 794.6 360.6 L 801.4 355.3 L 808.1 360.1 L 814.9 360.3 L 821.7 362.5 L 828.4 362.5 L 835.2 363.6 L 841.9 361.8 L 848.7 365.9 L 855.5 369.5 L 862.2 367.6 L 869.0 367.9 L 875.7 370.7 L 882.5 360.3 L 889.2 368.2 L 896.0 372.1" fill="none" stroke="#3f6fb0" stroke-width="1.7"/>
<circle cx="274.3" cy="46.0" r="3.2" fill="#3f6fb0"/>
<text x="58" y="22" font-size="14.5" fill="#2b2b2b" font-weight="600">네이버 검색어트렌드 (2016–2026, 월별·상대지수)</text>
<rect x="82" y="326" width="18" height="3" fill="#3f6fb0"/><text x="106" y="331" font-size="12" fill="#2b2b2b">하와이안 피자</text>
<rect x="82" y="346" width="18" height="3" fill="#cf5b46"/><text x="106" y="351" font-size="12" fill="#2b2b2b">파인애플 피자</text>
<text x="58" y="452" font-size="10" fill="#8a8a8a">출처: 네이버 데이터랩 검색어트렌드 (PC+모바일 합계). 두 검색어를 공통 최고점(2018.9 하와이안=100) 기준으로 정규화한 상대지수.</text>
</svg>